<mxfile host="app.diagrams.net" modified="2023-03-25T11:23:57.691Z" agent="Mozilla/5.0 (X11; Linux x86_64) AppleWebKit/537.36 (KHTML, like Gecko) Chrome/98.0.4758.102 Safari/537.36" etag="zccFpi4w14H1ST8YvRb9" version="21.1.1" type="device">
  <diagram name="Page-1" id="97916047-d0de-89f5-080d-49f4d83e522f">
    <mxGraphModel dx="1434" dy="692" grid="1" gridSize="10" guides="1" tooltips="1" connect="1" arrows="1" fold="1" page="1" pageScale="1.5" pageWidth="1169" pageHeight="827" background="none" math="0" shadow="0">
      <root>
        <mxCell id="0" />
        <mxCell id="1" parent="0" />
        <mxCell id="zLNCpQNk1FAk7kHBexg--29" value="" style="edgeStyle=orthogonalEdgeStyle;rounded=0;orthogonalLoop=1;jettySize=auto;html=1;strokeWidth=3;" parent="1" source="2" target="zLNCpQNk1FAk7kHBexg--28" edge="1">
          <mxGeometry relative="1" as="geometry">
            <Array as="points">
              <mxPoint x="1660" y="260" />
              <mxPoint x="1310" y="260" />
              <mxPoint x="1310" y="440" />
            </Array>
          </mxGeometry>
        </mxCell>
        <mxCell id="YXHzbHiNppF-7vrQTYC6-19" value="" style="edgeStyle=orthogonalEdgeStyle;rounded=0;orthogonalLoop=1;jettySize=auto;html=1;strokeWidth=3;" parent="1" source="2" target="YXHzbHiNppF-7vrQTYC6-18" edge="1">
          <mxGeometry relative="1" as="geometry">
            <Array as="points">
              <mxPoint x="1660" y="260" />
              <mxPoint x="2160" y="260" />
            </Array>
          </mxGeometry>
        </mxCell>
        <mxCell id="u6isZt58l-RDB77PPSJX-8" style="edgeStyle=orthogonalEdgeStyle;rounded=0;orthogonalLoop=1;jettySize=auto;html=1;exitX=0.5;exitY=1;exitDx=0;exitDy=0;strokeWidth=3;" parent="1" source="2" target="me37PqNFT6sz4v9akXJC-56" edge="1">
          <mxGeometry relative="1" as="geometry">
            <Array as="points">
              <mxPoint x="1660" y="260" />
              <mxPoint x="2680" y="260" />
            </Array>
          </mxGeometry>
        </mxCell>
        <mxCell id="u6isZt58l-RDB77PPSJX-9" style="edgeStyle=orthogonalEdgeStyle;rounded=0;orthogonalLoop=1;jettySize=auto;html=1;exitX=0.5;exitY=1;exitDx=0;exitDy=0;strokeWidth=3;" parent="1" source="2" target="5" edge="1">
          <mxGeometry relative="1" as="geometry">
            <Array as="points">
              <mxPoint x="1660" y="260" />
              <mxPoint x="1030" y="260" />
            </Array>
          </mxGeometry>
        </mxCell>
        <mxCell id="u6isZt58l-RDB77PPSJX-10" style="edgeStyle=orthogonalEdgeStyle;rounded=0;orthogonalLoop=1;jettySize=auto;html=1;exitX=0.5;exitY=1;exitDx=0;exitDy=0;strokeWidth=3;" parent="1" source="2" target="3" edge="1">
          <mxGeometry relative="1" as="geometry" />
        </mxCell>
        <mxCell id="u6isZt58l-RDB77PPSJX-11" style="edgeStyle=orthogonalEdgeStyle;rounded=0;orthogonalLoop=1;jettySize=auto;html=1;exitX=0.5;exitY=1;exitDx=0;exitDy=0;strokeWidth=3;" parent="1" source="2" target="me37PqNFT6sz4v9akXJC-61" edge="1">
          <mxGeometry relative="1" as="geometry">
            <Array as="points">
              <mxPoint x="1660" y="260" />
              <mxPoint x="1860" y="260" />
            </Array>
          </mxGeometry>
        </mxCell>
        <mxCell id="u6isZt58l-RDB77PPSJX-12" style="edgeStyle=orthogonalEdgeStyle;rounded=0;orthogonalLoop=1;jettySize=auto;html=1;exitX=0.5;exitY=1;exitDx=0;exitDy=0;strokeWidth=3;" parent="1" source="2" target="YXHzbHiNppF-7vrQTYC6-33" edge="1">
          <mxGeometry relative="1" as="geometry">
            <Array as="points">
              <mxPoint x="1660" y="260" />
              <mxPoint x="2430" y="260" />
            </Array>
          </mxGeometry>
        </mxCell>
        <mxCell id="u6isZt58l-RDB77PPSJX-13" style="edgeStyle=orthogonalEdgeStyle;rounded=0;orthogonalLoop=1;jettySize=auto;html=1;exitX=0.5;exitY=1;exitDx=0;exitDy=0;strokeWidth=3;" parent="1" source="2" target="7" edge="1">
          <mxGeometry relative="1" as="geometry">
            <Array as="points">
              <mxPoint x="1660" y="260" />
              <mxPoint x="2970" y="260" />
            </Array>
          </mxGeometry>
        </mxCell>
        <mxCell id="S1LVqpaOAuWpZUMYv_U4-9" style="edgeStyle=orthogonalEdgeStyle;rounded=0;orthogonalLoop=1;jettySize=auto;html=1;exitX=0.5;exitY=1;exitDx=0;exitDy=0;strokeWidth=3;" edge="1" parent="1" source="2" target="S1LVqpaOAuWpZUMYv_U4-7">
          <mxGeometry relative="1" as="geometry">
            <Array as="points">
              <mxPoint x="1660" y="260" />
              <mxPoint x="3150" y="260" />
            </Array>
          </mxGeometry>
        </mxCell>
        <mxCell id="2" value="Početna stranica" style="rounded=1;fillColor=#FF3333;strokeColor=none;shadow=1;gradientColor=none;fontStyle=1;fontColor=#FFFFFF;fontSize=14;" parent="1" vertex="1">
          <mxGeometry x="1560" y="110" width="200" height="60" as="geometry" />
        </mxCell>
        <mxCell id="u6isZt58l-RDB77PPSJX-15" style="edgeStyle=orthogonalEdgeStyle;rounded=0;orthogonalLoop=1;jettySize=auto;html=1;exitX=0.5;exitY=1;exitDx=0;exitDy=0;strokeWidth=3;" parent="1" source="3" target="YXHzbHiNppF-7vrQTYC6-10" edge="1">
          <mxGeometry relative="1" as="geometry">
            <Array as="points">
              <mxPoint x="1660" y="620" />
              <mxPoint x="1660" y="620" />
            </Array>
          </mxGeometry>
        </mxCell>
        <mxCell id="3" value="Prijava" style="rounded=1;fillColor=#FF3333;strokeColor=none;shadow=1;gradientColor=none;fontStyle=1;fontColor=#FFFFFF;fontSize=14;" parent="1" vertex="1">
          <mxGeometry x="1550" y="410" width="220" height="60" as="geometry" />
        </mxCell>
        <mxCell id="6" value="Stanje bodova" style="rounded=1;fillColor=#4D9900;strokeColor=none;shadow=1;gradientColor=none;fontStyle=1;fontColor=#FFFFFF;fontSize=14;" parent="1" vertex="1">
          <mxGeometry x="850" y="980" width="200" height="60" as="geometry" />
        </mxCell>
        <mxCell id="7" value="Dokumentacija" style="rounded=1;fillColor=#FF3333;strokeColor=none;shadow=1;gradientColor=none;fontStyle=1;fontColor=#FFFFFF;fontSize=14;" parent="1" vertex="1">
          <mxGeometry x="2870" y="410" width="200" height="60" as="geometry" />
        </mxCell>
        <mxCell id="me37PqNFT6sz4v9akXJC-55" value="&lt;font style=&quot;font-size: 14px;&quot;&gt;LEGENDA&lt;br&gt;&lt;br&gt;Svaka uloga više razine ima ovlasti i uloge niže razine&lt;br&gt;&lt;br&gt;&lt;font style=&quot;font-size: 14px;&quot; color=&quot;#3333FF&quot;&gt;Administrator&lt;/font&gt;&lt;br&gt;&lt;font style=&quot;font-size: 14px;&quot; color=&quot;#9933ff&quot;&gt;Moderator&lt;/font&gt;&lt;br&gt;&lt;font style=&quot;font-size: 14px;&quot; color=&quot;#4d9900&quot;&gt;Registrirani&lt;/font&gt; &lt;font style=&quot;font-size: 14px;&quot; color=&quot;#4d9900&quot;&gt;korisnik&lt;/font&gt;&lt;br&gt;&lt;font style=&quot;font-size: 14px;&quot; color=&quot;#ff3333&quot;&gt;Neregistrirani korisnik&lt;/font&gt;&lt;/font&gt;" style="rounded=0;whiteSpace=wrap;html=1;" parent="1" vertex="1">
          <mxGeometry x="750" y="30" width="250" height="210" as="geometry" />
        </mxCell>
        <mxCell id="me37PqNFT6sz4v9akXJC-56" value="O autoru" style="rounded=1;fillColor=#FF3333;strokeColor=none;shadow=1;gradientColor=none;fontStyle=1;fontColor=#FFFFFF;fontSize=14;dashed=1;fillStyle=auto;" parent="1" vertex="1">
          <mxGeometry x="2580" y="410" width="200" height="60" as="geometry" />
        </mxCell>
        <mxCell id="XkUcaJGakS5V8DI8hFpp-8" style="edgeStyle=orthogonalEdgeStyle;rounded=0;orthogonalLoop=1;jettySize=auto;html=1;entryX=0.5;entryY=0;entryDx=0;entryDy=0;strokeWidth=3;" parent="1" source="me37PqNFT6sz4v9akXJC-61" target="3" edge="1">
          <mxGeometry relative="1" as="geometry" />
        </mxCell>
        <mxCell id="me37PqNFT6sz4v9akXJC-61" value="Registracija" style="rounded=1;fillColor=#FF3333;strokeColor=none;shadow=1;gradientColor=none;fontStyle=1;fontColor=#FFFFFF;fontSize=14;" parent="1" vertex="1">
          <mxGeometry x="1750" y="300" width="220" height="60" as="geometry" />
        </mxCell>
        <mxCell id="u6isZt58l-RDB77PPSJX-17" style="edgeStyle=orthogonalEdgeStyle;rounded=0;orthogonalLoop=1;jettySize=auto;html=1;exitX=0.5;exitY=1;exitDx=0;exitDy=0;strokeWidth=3;" parent="1" source="AwabV-lyrjVTurayJqy0-50" target="YXHzbHiNppF-7vrQTYC6-34" edge="1">
          <mxGeometry relative="1" as="geometry" />
        </mxCell>
        <mxCell id="u6isZt58l-RDB77PPSJX-58" style="edgeStyle=orthogonalEdgeStyle;rounded=0;orthogonalLoop=1;jettySize=auto;html=1;exitX=0.5;exitY=1;exitDx=0;exitDy=0;strokeWidth=3;" parent="1" source="AwabV-lyrjVTurayJqy0-50" target="AwabV-lyrjVTurayJqy0-77" edge="1">
          <mxGeometry relative="1" as="geometry" />
        </mxCell>
        <mxCell id="u6isZt58l-RDB77PPSJX-59" style="edgeStyle=orthogonalEdgeStyle;rounded=0;orthogonalLoop=1;jettySize=auto;html=1;exitX=0.5;exitY=1;exitDx=0;exitDy=0;strokeWidth=3;" parent="1" source="AwabV-lyrjVTurayJqy0-50" target="AwabV-lyrjVTurayJqy0-84" edge="1">
          <mxGeometry relative="1" as="geometry" />
        </mxCell>
        <mxCell id="AwabV-lyrjVTurayJqy0-50" value="Popis svih kampanja" style="rounded=1;fillColor=#FF3333;strokeColor=none;shadow=1;gradientColor=none;fontStyle=1;fontColor=#FFFFFF;fontSize=14;" parent="1" vertex="1">
          <mxGeometry x="3400" y="980" width="200" height="60" as="geometry" />
        </mxCell>
        <mxCell id="AwabV-lyrjVTurayJqy0-60" value="Kupljeni proizvodi" style="rounded=1;fillColor=#4D9900;strokeColor=none;shadow=1;gradientColor=none;fontStyle=1;fontColor=#FFFFFF;fontSize=14;" parent="1" vertex="1">
          <mxGeometry x="1070" y="980" width="200" height="60" as="geometry" />
        </mxCell>
        <mxCell id="u6isZt58l-RDB77PPSJX-19" style="edgeStyle=orthogonalEdgeStyle;rounded=0;orthogonalLoop=1;jettySize=auto;html=1;exitX=0.5;exitY=1;exitDx=0;exitDy=0;entryX=0.5;entryY=0;entryDx=0;entryDy=0;strokeWidth=3;" parent="1" source="AwabV-lyrjVTurayJqy0-64" target="AwabV-lyrjVTurayJqy0-67" edge="1">
          <mxGeometry relative="1" as="geometry" />
        </mxCell>
        <mxCell id="u6isZt58l-RDB77PPSJX-51" style="edgeStyle=orthogonalEdgeStyle;rounded=0;orthogonalLoop=1;jettySize=auto;html=1;exitX=0.5;exitY=1;exitDx=0;exitDy=0;entryX=0.5;entryY=0;entryDx=0;entryDy=0;strokeWidth=3;" parent="1" source="AwabV-lyrjVTurayJqy0-64" target="AwabV-lyrjVTurayJqy0-81" edge="1">
          <mxGeometry relative="1" as="geometry" />
        </mxCell>
        <mxCell id="AwabV-lyrjVTurayJqy0-64" value="Popis otvorenih/aktivnih kampanja" style="rounded=1;fillColor=#4D9900;strokeColor=none;shadow=1;gradientColor=none;fontStyle=1;fontColor=#FFFFFF;fontSize=14;whiteSpace=wrap;" parent="1" vertex="1">
          <mxGeometry x="2590" y="980" width="200" height="60" as="geometry" />
        </mxCell>
        <mxCell id="AwabV-lyrjVTurayJqy0-67" value="Opis i cijena proizvoda" style="whiteSpace=wrap;html=1;fontSize=14;fillColor=#4D9900;strokeColor=none;fontColor=#FFFFFF;rounded=1;shadow=1;gradientColor=none;fontStyle=1;" parent="1" vertex="1">
          <mxGeometry x="2460" y="1110" width="200" height="60" as="geometry" />
        </mxCell>
        <mxCell id="AwabV-lyrjVTurayJqy0-72" value="Kupi proizvod" style="rounded=1;fillColor=#4D9900;strokeColor=none;shadow=1;gradientColor=none;fontStyle=1;fontColor=#FFFFFF;fontSize=14;" parent="1" vertex="1">
          <mxGeometry x="1200" y="840" width="200" height="60" as="geometry" />
        </mxCell>
        <mxCell id="hG5Oo-7r48u7gnzm4GV9-11" value="" style="edgeStyle=orthogonalEdgeStyle;rounded=0;orthogonalLoop=1;jettySize=auto;html=1;strokeWidth=3;" parent="1" source="AwabV-lyrjVTurayJqy0-77" target="hG5Oo-7r48u7gnzm4GV9-10" edge="1">
          <mxGeometry relative="1" as="geometry" />
        </mxCell>
        <mxCell id="AwabV-lyrjVTurayJqy0-77" value="Kreiraj/pregledaj/ažuriraj kampanju" style="rounded=1;fillColor=#B266FF;strokeColor=none;shadow=1;gradientColor=none;fontStyle=1;fontColor=#FFFFFF;fontSize=14;whiteSpace=wrap;" parent="1" vertex="1">
          <mxGeometry x="3400" y="1110" width="200" height="60" as="geometry" />
        </mxCell>
        <mxCell id="u6isZt58l-RDB77PPSJX-50" style="edgeStyle=orthogonalEdgeStyle;rounded=0;orthogonalLoop=1;jettySize=auto;html=1;exitX=0.5;exitY=1;exitDx=0;exitDy=0;strokeWidth=3;" parent="1" source="AwabV-lyrjVTurayJqy0-81" target="zLNCpQNk1FAk7kHBexg--10" edge="1">
          <mxGeometry relative="1" as="geometry" />
        </mxCell>
        <mxCell id="u6isZt58l-RDB77PPSJX-52" style="edgeStyle=orthogonalEdgeStyle;rounded=0;orthogonalLoop=1;jettySize=auto;html=1;exitX=0.5;exitY=1;exitDx=0;exitDy=0;strokeWidth=3;" parent="1" source="AwabV-lyrjVTurayJqy0-81" target="zLNCpQNk1FAk7kHBexg--7" edge="1">
          <mxGeometry relative="1" as="geometry">
            <Array as="points">
              <mxPoint x="2850" y="1210" />
              <mxPoint x="2610" y="1210" />
            </Array>
          </mxGeometry>
        </mxCell>
        <mxCell id="u6isZt58l-RDB77PPSJX-53" style="edgeStyle=orthogonalEdgeStyle;rounded=0;orthogonalLoop=1;jettySize=auto;html=1;exitX=0.5;exitY=1;exitDx=0;exitDy=0;entryX=0.5;entryY=0;entryDx=0;entryDy=0;strokeWidth=3;" parent="1" source="AwabV-lyrjVTurayJqy0-81" target="hG5Oo-7r48u7gnzm4GV9-8" edge="1">
          <mxGeometry relative="1" as="geometry" />
        </mxCell>
        <mxCell id="AwabV-lyrjVTurayJqy0-81" value="Popis proizvoda" style="rounded=1;fillColor=#B266FF;strokeColor=none;shadow=1;gradientColor=none;fontStyle=1;fontColor=#FFFFFF;fontSize=14;" parent="1" vertex="1">
          <mxGeometry x="2740" y="1110" width="220" height="60" as="geometry" />
        </mxCell>
        <mxCell id="AwabV-lyrjVTurayJqy0-84" value="Statistika kupljenih proizvoda po kampanji" style="rounded=1;fillColor=#B266FF;strokeColor=none;shadow=1;gradientColor=none;fontStyle=1;fontColor=#FFFFFF;fontSize=14;whiteSpace=wrap;" parent="1" vertex="1">
          <mxGeometry x="3660" y="1110" width="200" height="60" as="geometry" />
        </mxCell>
        <mxCell id="hG5Oo-7r48u7gnzm4GV9-13" value="" style="edgeStyle=orthogonalEdgeStyle;rounded=0;orthogonalLoop=1;jettySize=auto;html=1;strokeWidth=3;" parent="1" source="zLNCpQNk1FAk7kHBexg--7" target="hG5Oo-7r48u7gnzm4GV9-12" edge="1">
          <mxGeometry relative="1" as="geometry" />
        </mxCell>
        <mxCell id="zLNCpQNk1FAk7kHBexg--7" value="Kreiraj/pregledaj/ažuriraj proizvod" style="rounded=1;fillColor=#3333FF;strokeColor=none;shadow=1;gradientColor=none;fontStyle=1;fontColor=#FFFFFF;fontSize=14;whiteSpace=wrap;" parent="1" vertex="1">
          <mxGeometry x="2510" y="1260" width="200" height="60" as="geometry" />
        </mxCell>
        <mxCell id="zLNCpQNk1FAk7kHBexg--10" value="Statistika kupljenih proizvoda po moderatoru" style="rounded=1;fillColor=#3333FF;strokeColor=none;shadow=1;gradientColor=none;fontStyle=1;fontColor=#FFFFFF;fontSize=14;strokeWidth=3;whiteSpace=wrap;" parent="1" vertex="1">
          <mxGeometry x="2750" y="1260" width="200" height="60" as="geometry" />
        </mxCell>
        <mxCell id="zLNCpQNk1FAk7kHBexg--17" value="Dnevnik rada" style="rounded=1;fillColor=#3333FF;strokeColor=none;shadow=1;gradientColor=none;fontStyle=1;fontColor=#FFFFFF;fontSize=14;" parent="1" vertex="1">
          <mxGeometry x="1460" y="840" width="220" height="60" as="geometry" />
        </mxCell>
        <mxCell id="zLNCpQNk1FAk7kHBexg--23" value="" style="edgeStyle=orthogonalEdgeStyle;rounded=0;orthogonalLoop=1;jettySize=auto;html=1;strokeWidth=3;" parent="1" source="zLNCpQNk1FAk7kHBexg--20" target="zLNCpQNk1FAk7kHBexg--22" edge="1">
          <mxGeometry relative="1" as="geometry" />
        </mxCell>
        <mxCell id="zLNCpQNk1FAk7kHBexg--20" value="Blokirani korisnici" style="rounded=1;fillColor=#3333FF;strokeColor=none;shadow=1;gradientColor=none;fontStyle=1;fontColor=#FFFFFF;fontSize=14;" parent="1" vertex="1">
          <mxGeometry x="1730" y="840" width="220" height="60" as="geometry" />
        </mxCell>
        <mxCell id="zLNCpQNk1FAk7kHBexg--22" value="Deblokiraj korisnika" style="rounded=1;fillColor=#3333FF;strokeColor=none;shadow=1;gradientColor=none;fontStyle=1;fontColor=#FFFFFF;fontSize=14;" parent="1" vertex="1">
          <mxGeometry x="1730" y="980" width="220" height="60" as="geometry" />
        </mxCell>
        <mxCell id="zLNCpQNk1FAk7kHBexg--24" value="Resetiraj uvijete korištenja" style="rounded=1;fillColor=#3333FF;strokeColor=none;shadow=1;gradientColor=none;fontStyle=1;fontColor=#FFFFFF;fontSize=14;" parent="1" vertex="1">
          <mxGeometry x="2000" y="840" width="220" height="60" as="geometry" />
        </mxCell>
        <mxCell id="zLNCpQNk1FAk7kHBexg--26" value="Konfiguriraj aplikaciju" style="rounded=1;fillColor=#3333FF;strokeColor=none;shadow=1;gradientColor=none;fontStyle=1;fontColor=#FFFFFF;fontSize=14;" parent="1" vertex="1">
          <mxGeometry x="2290" y="840" width="220" height="60" as="geometry" />
        </mxCell>
        <mxCell id="zLNCpQNk1FAk7kHBexg--28" value="Kolačići" style="rounded=1;fillColor=#FF3333;strokeColor=none;shadow=1;gradientColor=none;fontStyle=1;fontColor=#FFFFFF;fontSize=14;strokeWidth=3;" parent="1" vertex="1">
          <mxGeometry x="1200" y="410" width="200" height="60" as="geometry" />
        </mxCell>
        <mxCell id="hG5Oo-7r48u7gnzm4GV9-8" value="Definiraj uvijete za bodove i cijene proizvoda u bodovima" style="rounded=1;fillColor=#B266FF;strokeColor=none;shadow=1;gradientColor=none;fontStyle=1;fontColor=#FFFFFF;fontSize=14;whiteSpace=wrap;" parent="1" vertex="1">
          <mxGeometry x="3000" y="1250" width="220" height="60" as="geometry" />
        </mxCell>
        <mxCell id="hG5Oo-7r48u7gnzm4GV9-10" value="Pridruži proizvod kampanji" style="rounded=1;fillColor=#B266FF;strokeColor=none;shadow=1;gradientColor=none;fontStyle=1;fontColor=#FFFFFF;fontSize=14;whiteSpace=wrap;" parent="1" vertex="1">
          <mxGeometry x="3400" y="1250" width="200" height="60" as="geometry" />
        </mxCell>
        <mxCell id="hG5Oo-7r48u7gnzm4GV9-12" value="Dodijeli moderatora" style="rounded=1;fillColor=#3333FF;strokeColor=none;shadow=1;gradientColor=none;fontStyle=1;fontColor=#FFFFFF;fontSize=14;whiteSpace=wrap;" parent="1" vertex="1">
          <mxGeometry x="2510" y="1380" width="200" height="60" as="geometry" />
        </mxCell>
        <mxCell id="HOPpFPDgfAFos47XvADU-7" style="edgeStyle=orthogonalEdgeStyle;rounded=0;orthogonalLoop=1;jettySize=auto;html=1;exitX=0.5;exitY=1;exitDx=0;exitDy=0;strokeWidth=3;" parent="1" source="YXHzbHiNppF-7vrQTYC6-7" target="AwabV-lyrjVTurayJqy0-60" edge="1">
          <mxGeometry relative="1" as="geometry" />
        </mxCell>
        <mxCell id="HOPpFPDgfAFos47XvADU-8" style="edgeStyle=orthogonalEdgeStyle;rounded=0;orthogonalLoop=1;jettySize=auto;html=1;exitX=0.5;exitY=1;exitDx=0;exitDy=0;entryX=0.455;entryY=-0.031;entryDx=0;entryDy=0;entryPerimeter=0;strokeWidth=3;" parent="1" source="YXHzbHiNppF-7vrQTYC6-7" target="6" edge="1">
          <mxGeometry relative="1" as="geometry" />
        </mxCell>
        <mxCell id="YXHzbHiNppF-7vrQTYC6-7" value="Kreiraj/pregledaj profil" style="rounded=1;fillColor=#4D9900;strokeColor=none;shadow=1;gradientColor=none;fontStyle=1;fontColor=#FFFFFF;fontSize=14;" parent="1" vertex="1">
          <mxGeometry x="950" y="840" width="220" height="60" as="geometry" />
        </mxCell>
        <mxCell id="YXHzbHiNppF-7vrQTYC6-13" style="edgeStyle=orthogonalEdgeStyle;rounded=0;orthogonalLoop=1;jettySize=auto;html=1;exitX=0.5;exitY=1;exitDx=0;exitDy=0;strokeWidth=3;" parent="1" source="YXHzbHiNppF-7vrQTYC6-10" target="zLNCpQNk1FAk7kHBexg--20" edge="1">
          <mxGeometry relative="1" as="geometry">
            <Array as="points">
              <mxPoint x="1660" y="790" />
              <mxPoint x="1840" y="790" />
            </Array>
          </mxGeometry>
        </mxCell>
        <mxCell id="YXHzbHiNppF-7vrQTYC6-14" style="edgeStyle=orthogonalEdgeStyle;rounded=0;orthogonalLoop=1;jettySize=auto;html=1;exitX=0.5;exitY=1;exitDx=0;exitDy=0;strokeWidth=3;" parent="1" source="YXHzbHiNppF-7vrQTYC6-10" target="zLNCpQNk1FAk7kHBexg--24" edge="1">
          <mxGeometry relative="1" as="geometry">
            <Array as="points">
              <mxPoint x="1660" y="790" />
              <mxPoint x="2120" y="790" />
            </Array>
          </mxGeometry>
        </mxCell>
        <mxCell id="YXHzbHiNppF-7vrQTYC6-15" style="edgeStyle=orthogonalEdgeStyle;rounded=0;orthogonalLoop=1;jettySize=auto;html=1;exitX=0.5;exitY=1;exitDx=0;exitDy=0;entryX=0.5;entryY=0;entryDx=0;entryDy=0;strokeWidth=3;" parent="1" source="YXHzbHiNppF-7vrQTYC6-10" target="zLNCpQNk1FAk7kHBexg--26" edge="1">
          <mxGeometry relative="1" as="geometry">
            <Array as="points">
              <mxPoint x="1660" y="790" />
              <mxPoint x="2400" y="790" />
              <mxPoint x="2400" y="840" />
            </Array>
          </mxGeometry>
        </mxCell>
        <mxCell id="YXHzbHiNppF-7vrQTYC6-16" style="edgeStyle=orthogonalEdgeStyle;rounded=0;orthogonalLoop=1;jettySize=auto;html=1;exitX=0.5;exitY=1;exitDx=0;exitDy=0;entryX=0.5;entryY=0;entryDx=0;entryDy=0;strokeWidth=3;" parent="1" source="YXHzbHiNppF-7vrQTYC6-10" target="zLNCpQNk1FAk7kHBexg--17" edge="1">
          <mxGeometry relative="1" as="geometry">
            <Array as="points">
              <mxPoint x="1660" y="790" />
              <mxPoint x="1570" y="790" />
            </Array>
          </mxGeometry>
        </mxCell>
        <mxCell id="HOPpFPDgfAFos47XvADU-14" style="edgeStyle=orthogonalEdgeStyle;rounded=0;orthogonalLoop=1;jettySize=auto;html=1;exitX=0.5;exitY=1;exitDx=0;exitDy=0;strokeWidth=3;" parent="1" source="YXHzbHiNppF-7vrQTYC6-10" target="AwabV-lyrjVTurayJqy0-72" edge="1">
          <mxGeometry relative="1" as="geometry">
            <Array as="points">
              <mxPoint x="1660" y="790" />
              <mxPoint x="1300" y="790" />
            </Array>
          </mxGeometry>
        </mxCell>
        <mxCell id="HOPpFPDgfAFos47XvADU-15" style="edgeStyle=orthogonalEdgeStyle;rounded=0;orthogonalLoop=1;jettySize=auto;html=1;exitX=0.5;exitY=1;exitDx=0;exitDy=0;strokeWidth=3;" parent="1" source="YXHzbHiNppF-7vrQTYC6-10" target="YXHzbHiNppF-7vrQTYC6-7" edge="1">
          <mxGeometry relative="1" as="geometry">
            <Array as="points">
              <mxPoint x="1660" y="790" />
              <mxPoint x="1060" y="790" />
            </Array>
          </mxGeometry>
        </mxCell>
        <mxCell id="S1LVqpaOAuWpZUMYv_U4-8" value="" style="edgeStyle=orthogonalEdgeStyle;rounded=0;orthogonalLoop=1;jettySize=auto;html=1;strokeWidth=3;" edge="1" parent="1" source="YXHzbHiNppF-7vrQTYC6-10" target="S1LVqpaOAuWpZUMYv_U4-7">
          <mxGeometry relative="1" as="geometry">
            <Array as="points">
              <mxPoint x="1660" y="790" />
              <mxPoint x="3150" y="790" />
            </Array>
          </mxGeometry>
        </mxCell>
        <mxCell id="YXHzbHiNppF-7vrQTYC6-10" value="Početna registrirani korisnik" style="rounded=1;fillColor=#4D9900;strokeColor=none;shadow=1;gradientColor=none;fontStyle=1;fontColor=#FFFFFF;fontSize=14;" parent="1" vertex="1">
          <mxGeometry x="1550" y="670" width="220" height="60" as="geometry" />
        </mxCell>
        <mxCell id="YXHzbHiNppF-7vrQTYC6-18" value="Direktorij privatno" style="rounded=1;fillColor=#FF3333;strokeColor=none;shadow=1;gradientColor=none;fontStyle=1;fontColor=#FFFFFF;fontSize=14;" parent="1" vertex="1">
          <mxGeometry x="2050" y="410" width="200" height="60" as="geometry" />
        </mxCell>
        <mxCell id="YXHzbHiNppF-7vrQTYC6-37" value="" style="edgeStyle=orthogonalEdgeStyle;rounded=0;orthogonalLoop=1;jettySize=auto;html=1;strokeWidth=3;" parent="1" source="5" target="YXHzbHiNppF-7vrQTYC6-36" edge="1">
          <mxGeometry relative="1" as="geometry" />
        </mxCell>
        <mxCell id="5" value="Popis korisnika" style="rounded=1;fillColor=#FF3333;strokeColor=#B85450;shadow=1;fontStyle=1;fontSize=14;gradientDirection=east;fontColor=#FFFFFF;" parent="1" vertex="1">
          <mxGeometry x="920" y="410" width="200" height="60" as="geometry" />
        </mxCell>
        <mxCell id="YXHzbHiNppF-7vrQTYC6-33" value="Prijevod stranice" style="rounded=1;fillColor=#FF3333;strokeColor=none;shadow=1;gradientColor=none;fontStyle=1;fontColor=#FFFFFF;fontSize=14;" parent="1" vertex="1">
          <mxGeometry x="2320" y="410" width="200" height="60" as="geometry" />
        </mxCell>
        <mxCell id="YXHzbHiNppF-7vrQTYC6-34" value="Filtriraj&#xa;kampanje po datumu završetka" style="rounded=1;fillColor=#FF3333;strokeColor=none;shadow=1;gradientColor=none;fontStyle=1;fontColor=#FFFFFF;fontSize=14;whiteSpace=wrap;" parent="1" vertex="1">
          <mxGeometry x="3160" y="1110" width="200" height="60" as="geometry" />
        </mxCell>
        <mxCell id="YXHzbHiNppF-7vrQTYC6-36" value="Sortiraj/filtriraj po nadimku&#xa;korisnika." style="rounded=1;fillColor=#FF3333;strokeColor=#B85450;shadow=1;fontStyle=1;fontSize=14;gradientDirection=east;fontColor=#FFFFFF;" parent="1" vertex="1">
          <mxGeometry x="920" y="550" width="200" height="60" as="geometry" />
        </mxCell>
        <mxCell id="S1LVqpaOAuWpZUMYv_U4-10" style="edgeStyle=orthogonalEdgeStyle;rounded=0;orthogonalLoop=1;jettySize=auto;html=1;exitX=0.5;exitY=1;exitDx=0;exitDy=0;strokeWidth=3;" edge="1" parent="1" source="S1LVqpaOAuWpZUMYv_U4-7" target="AwabV-lyrjVTurayJqy0-64">
          <mxGeometry relative="1" as="geometry" />
        </mxCell>
        <mxCell id="S1LVqpaOAuWpZUMYv_U4-11" style="edgeStyle=orthogonalEdgeStyle;rounded=0;orthogonalLoop=1;jettySize=auto;html=1;exitX=0.5;exitY=1;exitDx=0;exitDy=0;strokeWidth=3;" edge="1" parent="1" source="S1LVqpaOAuWpZUMYv_U4-7" target="AwabV-lyrjVTurayJqy0-50">
          <mxGeometry relative="1" as="geometry" />
        </mxCell>
        <mxCell id="S1LVqpaOAuWpZUMYv_U4-7" value="Kampanje" style="rounded=1;fillColor=#FF3333;strokeColor=none;shadow=1;gradientColor=none;fontStyle=1;fontColor=#FFFFFF;fontSize=14;" vertex="1" parent="1">
          <mxGeometry x="3040" y="840" width="220" height="60" as="geometry" />
        </mxCell>
      </root>
    </mxGraphModel>
  </diagram>
</mxfile>
